<svg xmlns="http://www.w3.org/2000/svg" xmlns:xlink="http://www.w3.org/1999/xlink" contentStyleType="text/css" height="373px" preserveAspectRatio="none" style="width:398px;height:373px;" version="1.1" viewBox="0 0 398 373" width="398px" zoomAndPan="magnify"><defs/><g><line style="stroke:#EEEEEE;stroke-width:0.5;stroke-dasharray:5.0,5.0;" x1="26" x2="26" y1="86.9688" y2="286.8125"/><line style="stroke:#EEEEEE;stroke-width:0.5;stroke-dasharray:5.0,5.0;" x1="143.0654" x2="143.0654" y1="86.9688" y2="286.8125"/><line style="stroke:#EEEEEE;stroke-width:0.5;stroke-dasharray:5.0,5.0;" x1="199.0654" x2="199.0654" y1="86.9688" y2="286.8125"/><line style="stroke:#EEEEEE;stroke-width:0.5;stroke-dasharray:5.0,5.0;" x1="252.2861" x2="252.2861" y1="86.9688" y2="286.8125"/><line style="stroke:#EEEEEE;stroke-width:0.5;stroke-dasharray:5.0,5.0;" x1="305.5068" x2="305.5068" y1="86.9688" y2="286.8125"/><line style="stroke:#EEEEEE;stroke-width:0.5;stroke-dasharray:5.0,5.0;" x1="364.7275" x2="364.7275" y1="86.9688" y2="286.8125"/><text fill="#EEEEEE" font-family="sans-serif" font-size="12" lengthAdjust="spacing" textLength="29.2207" x="9" y="80.1387">Foo1</text><ellipse cx="26.6104" cy="13.5" fill="#1A618C" rx="8" ry="8" style="stroke:#EEEEEE;stroke-width:0.5;"/><path d="M26.6104,21.5 L26.6104,48.5 M13.6104,29.5 L39.6104,29.5 M26.6104,48.5 L13.6104,63.5 M26.6104,48.5 L39.6104,63.5 " fill="none" style="stroke:#EEEEEE;stroke-width:0.5;"/><text fill="#EEEEEE" font-family="sans-serif" font-size="12" lengthAdjust="spacing" textLength="29.2207" x="9" y="300.9512">Foo1</text><ellipse cx="26.6104" cy="316.2813" fill="#1A618C" rx="8" ry="8" style="stroke:#EEEEEE;stroke-width:0.5;"/><path d="M26.6104,324.2813 L26.6104,351.2813 M13.6104,332.2813 L39.6104,332.2813 M26.6104,351.2813 L13.6104,366.2813 M26.6104,351.2813 L39.6104,366.2813 " fill="none" style="stroke:#EEEEEE;stroke-width:0.5;"/><text fill="#EEEEEE" font-family="sans-serif" font-size="12" lengthAdjust="spacing" textLength="29.2207" x="125.9551" y="80.1387">Foo2</text><path d="M123.0654,37 L123.0654,61 M123.0654,49 L140.0654,49 " fill="none" style="stroke:#EEEEEE;stroke-width:0.5;"/><ellipse cx="152.0654" cy="49" fill="#1A618C" rx="12" ry="12" style="stroke:#EEEEEE;stroke-width:0.5;"/><text fill="#EEEEEE" font-family="sans-serif" font-size="12" lengthAdjust="spacing" textLength="29.2207" x="125.9551" y="300.9512">Foo2</text><path d="M123.0654,311.7813 L123.0654,335.7813 M123.0654,323.7813 L140.0654,323.7813 " fill="none" style="stroke:#EEEEEE;stroke-width:0.5;"/><ellipse cx="152.0654" cy="323.7813" fill="#1A618C" rx="12" ry="12" style="stroke:#EEEEEE;stroke-width:0.5;"/><text fill="#EEEEEE" font-family="sans-serif" font-size="12" lengthAdjust="spacing" textLength="29.2207" x="182.0654" y="80.1387">Foo3</text><ellipse cx="199.6758" cy="49" fill="#1A618C" rx="12" ry="12" style="stroke:#EEEEEE;stroke-width:0.5;"/><polygon fill="#EEEEEE" points="195.6758,37,201.6758,32,199.6758,37,201.6758,42,195.6758,37" style="stroke:#EEEEEE;stroke-width:1.0;"/><text fill="#EEEEEE" font-family="sans-serif" font-size="12" lengthAdjust="spacing" textLength="29.2207" x="182.0654" y="300.9512">Foo3</text><ellipse cx="199.6758" cy="323.7813" fill="#1A618C" rx="12" ry="12" style="stroke:#EEEEEE;stroke-width:0.5;"/><polygon fill="#EEEEEE" points="195.6758,311.7813,201.6758,306.7813,199.6758,311.7813,201.6758,316.7813,195.6758,311.7813" style="stroke:#EEEEEE;stroke-width:1.0;"/><text fill="#EEEEEE" font-family="sans-serif" font-size="12" lengthAdjust="spacing" textLength="29.2207" x="235.2861" y="80.1387">Foo4</text><ellipse cx="252.8965" cy="49" fill="#1A618C" rx="12" ry="12" style="stroke:#EEEEEE;stroke-width:0.5;"/><line style="stroke:#EEEEEE;stroke-width:0.5;" x1="240.8965" x2="264.8965" y1="63" y2="63"/><text fill="#EEEEEE" font-family="sans-serif" font-size="12" lengthAdjust="spacing" textLength="29.2207" x="235.2861" y="300.9512">Foo4</text><ellipse cx="252.8965" cy="323.7813" fill="#1A618C" rx="12" ry="12" style="stroke:#EEEEEE;stroke-width:0.5;"/><line style="stroke:#EEEEEE;stroke-width:0.5;" x1="240.8965" x2="264.8965" y1="337.7813" y2="337.7813"/><text fill="#EEEEEE" font-family="sans-serif" font-size="12" lengthAdjust="spacing" textLength="29.2207" x="288.5068" y="80.1387">Foo5</text><path d="M288.1172,29 C288.1172,19 306.1172,19 306.1172,19 C306.1172,19 324.1172,19 324.1172,29 L324.1172,55 C324.1172,65 306.1172,65 306.1172,65 C306.1172,65 288.1172,65 288.1172,55 L288.1172,29 " fill="#1A618C" style="stroke:#EEEEEE;stroke-width:1.5;"/><path d="M288.1172,29 C288.1172,39 306.1172,39 306.1172,39 C306.1172,39 324.1172,39 324.1172,29 " fill="none" style="stroke:#EEEEEE;stroke-width:1.5;"/><text fill="#EEEEEE" font-family="sans-serif" font-size="12" lengthAdjust="spacing" textLength="29.2207" x="288.5068" y="300.9512">Foo5</text><path d="M288.1172,317.7813 C288.1172,307.7813 306.1172,307.7813 306.1172,307.7813 C306.1172,307.7813 324.1172,307.7813 324.1172,317.7813 L324.1172,343.7813 C324.1172,353.7813 306.1172,353.7813 306.1172,353.7813 C306.1172,353.7813 288.1172,353.7813 288.1172,343.7813 L288.1172,317.7813 " fill="#1A618C" style="stroke:#EEEEEE;stroke-width:1.5;"/><path d="M288.1172,317.7813 C288.1172,327.7813 306.1172,327.7813 306.1172,327.7813 C306.1172,327.7813 324.1172,327.7813 324.1172,317.7813 " fill="none" style="stroke:#EEEEEE;stroke-width:1.5;"/><rect fill="#1A618C" height="35.9688" rx="2" ry="2" style="stroke:#EEEEEE;stroke-width:0.5;" width="51.2207" x="341.7275" y="46"/><rect fill="#1A618C" height="35.9688" rx="2" ry="2" style="stroke:#EEEEEE;stroke-width:0.5;" width="51.2207" x="337.7275" y="50"/><text fill="#EEEEEE" font-family="sans-serif" font-size="12" lengthAdjust="spacing" textLength="29.2207" x="348.7275" y="72.1387">Foo6</text><rect fill="#1A618C" height="35.9688" rx="2" ry="2" style="stroke:#EEEEEE;stroke-width:0.5;" width="51.2207" x="341.7275" y="285.8125"/><rect fill="#1A618C" height="35.9688" rx="2" ry="2" style="stroke:#EEEEEE;stroke-width:0.5;" width="51.2207" x="337.7275" y="289.8125"/><text fill="#EEEEEE" font-family="sans-serif" font-size="12" lengthAdjust="spacing" textLength="29.2207" x="348.7275" y="311.9512">Foo6</text><polygon fill="#EEEEEE" points="131.5654,120.9375,141.5654,124.9375,131.5654,128.9375,135.5654,124.9375" style="stroke:#EEEEEE;stroke-width:1.0;"/><line style="stroke:#EEEEEE;stroke-width:3.0;" x1="26.6104" x2="137.5654" y1="124.9375" y2="124.9375"/><text fill="#EEEEEE" font-family="sans-serif" font-size="12" font-weight="bold" lengthAdjust="spacing" textLength="84.9551" x="37.6104" y="116.1074">To boundary</text><polygon fill="#EEEEEE" points="187.6758,156.9063,197.6758,160.9063,187.6758,164.9063,191.6758,160.9063" style="stroke:#EEEEEE;stroke-width:1.0;"/><line style="stroke:#EEEEEE;stroke-width:3.0;" x1="26.6104" x2="193.6758" y1="160.9063" y2="160.9063"/><text fill="#EEEEEE" font-family="sans-serif" font-size="12" font-weight="bold" lengthAdjust="spacing" textLength="68.5195" x="37.6104" y="152.0762">To control</text><polygon fill="#EEEEEE" points="240.8965,192.875,250.8965,196.875,240.8965,200.875,244.8965,196.875" style="stroke:#EEEEEE;stroke-width:1.0;"/><line style="stroke:#EEEEEE;stroke-width:3.0;" x1="26.6104" x2="246.8965" y1="196.875" y2="196.875"/><text fill="#EEEEEE" font-family="sans-serif" font-size="12" font-weight="bold" lengthAdjust="spacing" textLength="60.6973" x="37.6104" y="188.0449">To entity</text><polygon fill="#EEEEEE" points="294.1172,228.8438,304.1172,232.8438,294.1172,236.8438,298.1172,232.8438" style="stroke:#EEEEEE;stroke-width:1.0;"/><line style="stroke:#EEEEEE;stroke-width:3.0;" x1="26.6104" x2="300.1172" y1="232.8438" y2="232.8438"/><text fill="#EEEEEE" font-family="sans-serif" font-size="12" font-weight="bold" lengthAdjust="spacing" textLength="83.0977" x="37.6104" y="224.0137">To database</text><polygon fill="#EEEEEE" points="353.3379,264.8125,363.3379,268.8125,353.3379,272.8125,357.3379,268.8125" style="stroke:#EEEEEE;stroke-width:1.0;"/><line style="stroke:#EEEEEE;stroke-width:3.0;" x1="26.6104" x2="359.3379" y1="268.8125" y2="268.8125"/><text fill="#EEEEEE" font-family="sans-serif" font-size="12" font-weight="bold" lengthAdjust="spacing" textLength="93.2227" x="37.6104" y="259.9824">To collections</text><!--SRC=[rLR1Sjem4BthAvHmoAMT2GaXQIUJ6N18cWc53ERIKqPO2sWG4fL5AEtqtxks0SkEWJI33_79qgxUUxjUQ_U8mr0eeCtxv- -DXywprsrtUpH-AjL6lNhbaQFKnMzvtSvje_TZvLUfL-kNzIlNvQdXFJRkMnkWoYKxE_qoJ5swlTjMp-MXbLRyR5pkkfr-nY5r8UI42XN8EGTgnq17eC0mISE9K3Dcs3IaGsteGDln9oh5Q6mfKvnoPYPuqcggNy0iZB105yAE4mpn0eg6OArGep0ljF_jmNlij7oVdXEoeQ5FZ7DqfpLdhwVdYdlQeAJClZzcN2yYxo6J8JYM0Gic8vCSawZR6gP2D86oBjaj3DbSMlg7dDnfPJji2lIuEqFLFlfJ7wPYe2K_9f4rGKfp66_wuZVGwXdvwy8sZD4B12qyKGnZbn8pWrnPf1d6mKQ0M8L7cxamCyL6cjfmC2kBKnr8aJ8epVy7FbE5RsC8z7Ic5MOUQTufk51TahFvLEQopvbb0nR2WUao787KSrugWPOI0Yiqbk6XQL8M3nsCbYKoD2D8PfObKhIK5RPC0g4ic24Be4GE7txEGGNmn8mLWPWnPHEm_bW44mLXYDTawXwkt56HUsAdk5VG1JeTd_HQKjfCcSpRNeNJ5aDeumM_5NpZi5DcV7c-0eztjoB7ra9HiSNDOIEmsknH4BjivOgistxW4-hLQ9GrR4gugEnzt7_Uu0_Fr4Z2zVKCJAZLpGr-Nn-B3xHTpc1hzpXKNyXNNBvJPwyeHoxyGf6AoUV3wyvDHYM83vUXXUd7o_NXTPUKwtL3_XYfJjL-l4mxPJ9ODTv4TMvGpaOHpx2d-wUzTyM-Ex2amN0MZe6_9TR2K0CaPjXNp5jZhTRsb589aUx-X8H5NONUQLqbwoyNhSv8i1hHS75E81bryBr6DcCkhYw8Eo_YHfr4KFJpJGn2lzA-fcjSrtIUc5OahgMMM196rt2H6DRqhgc-Hjje-GS0]--></g></svg>